<svg id="visual" viewBox="0 0 9999 9999" width="9999" height="9999" xmlns="http://www.w3.org/2000/svg" xmlns:xlink="http://www.w3.org/1999/xlink" version="1.1"><rect x="0" y="0" width="9999" height="9999" fill="#032C40"></rect><g fill="#ffffff"><path d="M0 -168.9L37.9 -52.2L160.7 -52.2L61.4 19.9L99.3 136.7L0 64.5L-99.3 136.7L-61.4 19.9L-160.7 -52.2L-37.9 -52.2Z" transform="translate(5037 2014)"></path><path d="M0 -11.3L2.5 -3.5L10.8 -3.5L4.1 1.3L6.7 9.2L0 4.3L-6.7 9.2L-4.1 1.3L-10.8 -3.5L-2.5 -3.5Z" transform="translate(9775 1276)"></path><path d="M0 -26.4L5.9 -8.2L25.1 -8.2L9.6 3.1L15.5 21.4L0 10.1L-15.5 21.4L-9.6 3.1L-25.1 -8.2L-5.9 -8.2Z" transform="translate(5625 658)"></path><path d="M0 -164.2L36.9 -50.7L156.2 -50.7L59.7 19.4L96.5 132.9L0 62.7L-96.5 132.9L-59.7 19.4L-156.2 -50.7L-36.9 -50.7Z" transform="translate(4074 2838)"></path><path d="M0 -71.7L16.1 -22.2L68.2 -22.2L26.1 8.5L42.2 58L0 27.4L-42.2 58L-26.1 8.5L-68.2 -22.2L-16.1 -22.2Z" transform="translate(6566 5645)"></path><path d="M0 -46.2L10.4 -14.3L44 -14.3L16.8 5.5L27.2 37.4L0 17.7L-27.2 37.4L-16.8 5.5L-44 -14.3L-10.4 -14.3Z" transform="translate(9944 271)"></path><path d="M0 -121.8L27.3 -37.6L115.8 -37.6L44.2 14.4L71.6 98.5L0 46.5L-71.6 98.5L-44.2 14.4L-115.8 -37.6L-27.3 -37.6Z" transform="translate(4750 7960)"></path><path d="M0 -62.3L14 -19.2L59.2 -19.2L22.6 7.4L36.6 50.4L0 23.8L-36.6 50.4L-22.6 7.4L-59.2 -19.2L-14 -19.2Z" transform="translate(5949 5452)"></path><path d="M0 -34.9L7.8 -10.8L33.2 -10.8L12.7 4.1L20.5 28.3L0 13.3L-20.5 28.3L-12.7 4.1L-33.2 -10.8L-7.8 -10.8Z" transform="translate(5725 7659)"></path><path d="M0 -11.3L2.5 -3.5L10.8 -3.5L4.1 1.3L6.7 9.2L0 4.3L-6.7 9.2L-4.1 1.3L-10.8 -3.5L-2.5 -3.5Z" transform="translate(3048 7943)"></path><path d="M0 -126.5L28.4 -39.1L120.3 -39.1L45.9 14.9L74.3 102.3L0 48.3L-74.3 102.3L-45.9 14.9L-120.3 -39.1L-28.4 -39.1Z" transform="translate(4779 7370)"></path><path d="M0 -118.9L26.7 -36.7L113.1 -36.7L43.2 14L69.9 96.2L0 45.4L-69.9 96.2L-43.2 14L-113.1 -36.7L-26.7 -36.7Z" transform="translate(3633 8337)"></path><path d="M0 -12.3L2.8 -3.8L11.7 -3.8L4.5 1.4L7.2 9.9L0 4.7L-7.2 9.9L-4.5 1.4L-11.7 -3.8L-2.8 -3.8Z" transform="translate(1769 3037)"></path><path d="M0 -130.2L29.2 -40.2L123.9 -40.2L47.3 15.4L76.6 105.4L0 49.8L-76.6 105.4L-47.3 15.4L-123.9 -40.2L-29.2 -40.2Z" transform="translate(600 5598)"></path><path d="M0 -45.3L10.2 -14L43.1 -14L16.5 5.3L26.6 36.7L0 17.3L-26.6 36.7L-16.5 5.3L-43.1 -14L-10.2 -14Z" transform="translate(4122 5242)"></path><path d="M0 -70.8L15.9 -21.9L67.3 -21.9L25.7 8.4L41.6 57.3L0 27L-41.6 57.3L-25.7 8.4L-67.3 -21.9L-15.9 -21.9Z" transform="translate(7614 2501)"></path><path d="M0 -88.7L19.9 -27.4L84.4 -27.4L32.2 10.5L52.1 71.8L0 33.9L-52.1 71.8L-32.2 10.5L-84.4 -27.4L-19.9 -27.4Z" transform="translate(4664 3786)"></path><path d="M0 -47.2L10.6 -14.6L44.9 -14.6L17.1 5.6L27.7 38.2L0 18L-27.7 38.2L-17.1 5.6L-44.9 -14.6L-10.6 -14.6Z" transform="translate(9156 3391)"></path><path d="M0 -163.3L36.7 -50.5L155.3 -50.5L59.3 19.3L96 132.1L0 62.4L-96 132.1L-59.3 19.3L-155.3 -50.5L-36.7 -50.5Z" transform="translate(7387 1757)"></path><path d="M0 -34.9L7.8 -10.8L33.2 -10.8L12.7 4.1L20.5 28.3L0 13.3L-20.5 28.3L-12.7 4.1L-33.2 -10.8L-7.8 -10.8Z" transform="translate(2048 6316)"></path><path d="M0 -15.1L3.4 -4.7L14.4 -4.7L5.5 1.8L8.9 12.2L0 5.8L-8.9 12.2L-5.5 1.8L-14.4 -4.7L-3.4 -4.7Z" transform="translate(6192 9758)"></path><path d="M0 -36.8L8.3 -11.4L35 -11.4L13.4 4.3L21.6 29.8L0 14.1L-21.6 29.8L-13.4 4.3L-35 -11.4L-8.3 -11.4Z" transform="translate(3265 1478)"></path><path d="M0 -109.5L24.6 -33.8L104.1 -33.8L39.8 12.9L64.4 88.6L0 41.8L-64.4 88.6L-39.8 12.9L-104.1 -33.8L-24.6 -33.8Z" transform="translate(735 8988)"></path><path d="M0 -76.5L17.2 -23.6L72.7 -23.6L27.8 9L44.9 61.8L0 29.2L-44.9 61.8L-27.8 9L-72.7 -23.6L-17.2 -23.6Z" transform="translate(2279 4585)"></path><path d="M0 -156.7L35.2 -48.4L149 -48.4L56.9 18.5L92.1 126.8L0 59.8L-92.1 126.8L-56.9 18.5L-149 -48.4L-35.2 -48.4Z" transform="translate(5770 8990)"></path><path d="M0 -59.5L13.3 -18.4L56.6 -18.4L21.6 7L35 48.1L0 22.7L-35 48.1L-21.6 7L-56.6 -18.4L-13.3 -18.4Z" transform="translate(4459 8524)"></path><path d="M0 -16L3.6 -5L15.3 -5L5.8 1.9L9.4 13L0 6.1L-9.4 13L-5.8 1.9L-15.3 -5L-3.6 -5Z" transform="translate(9175 8345)"></path></g></svg>